<svg width="43" height="46" viewBox="0 0 43 46" fill="none" xmlns="http://www.w3.org/2000/svg">
<mask id="path-1-outside-1_1_113" maskUnits="userSpaceOnUse" x="-0.538086" y="14.314" width="42" height="32" fill="black">
<rect fill="white" x="-0.538086" y="14.314" width="42" height="32"/>
<path d="M4.34676 27.3247C2.54703 26.6967 2.41338 25.3474 2.73561 23.8528C2.92236 22.979 3.80482 22.3851 4.74039 22.3672C5.39949 22.3546 6.06043 22.3474 6.7177 22.3708C7.02162 22.3815 7.15711 22.299 7.24682 21.9958C7.63862 20.6572 8.06154 19.3277 8.47531 17.9946C9.01541 16.2559 10.3135 15.314 12.1791 15.314C17.798 15.314 23.4187 15.314 29.0376 15.314C30.9288 15.314 32.2104 16.2506 32.7578 18.0287C33.1679 19.3618 33.5872 20.6931 33.9808 22.0316C34.0577 22.2936 34.1713 22.3779 34.444 22.3708C35.1032 22.351 35.7623 22.3564 36.4214 22.3672C37.6517 22.3851 38.5708 23.2858 38.5854 24.4969C38.5909 24.906 38.6294 25.3169 38.5195 25.7242C38.2961 26.555 37.7249 27.0412 36.9193 27.2906C36.9193 27.4234 37.0255 27.4341 37.0896 27.479C38.5287 28.4694 39.2757 29.8295 39.3013 31.5466C39.3269 33.2798 39.3141 35.0131 39.3013 36.7445C39.2995 37.0388 39.3617 37.1626 39.6803 37.2343C40.3339 37.3815 40.7293 37.9198 40.744 38.5908C40.755 39.0465 40.7531 39.5023 40.744 39.9562C40.7257 40.8031 40.1288 41.3791 39.2592 41.397C38.8124 41.4066 38.5891 41.6333 38.5891 42.077C38.5891 42.5471 38.5946 43.0172 38.5891 43.4873C38.5689 44.7002 37.6608 45.6117 36.4305 45.6243C34.9915 45.6386 33.5524 45.6386 32.1152 45.6243C30.905 45.6117 29.9859 44.7074 29.9621 43.5286C29.9511 42.9706 29.9365 42.4108 29.9676 41.8545C29.9878 41.4957 29.8926 41.388 29.5081 41.3898C26.2107 41.406 22.9152 41.3988 19.6178 41.3988C16.9961 41.3988 14.3725 41.4096 11.7507 41.388C11.3223 41.3845 11.2271 41.5154 11.249 41.9012C11.2802 42.4431 11.2655 42.9885 11.2545 43.5304C11.2289 44.711 10.3098 45.6135 9.09963 45.6243C7.66059 45.6386 6.22154 45.6386 4.78433 45.6243C3.55583 45.6117 2.6459 44.6984 2.62759 43.4855C2.62027 42.9562 2.59097 42.4251 2.63674 41.9012C2.67702 41.449 2.49943 41.3378 2.08749 41.3952C1.84948 41.4275 1.60598 41.3952 1.38261 41.2983C0.813221 41.0471 0.48733 40.6201 0.470853 39.9993C0.458037 39.5292 0.459868 39.0591 0.470853 38.589C0.485499 37.9 0.890117 37.3671 1.57668 37.2218C1.87328 37.159 1.91173 37.037 1.9099 36.7894C1.90257 35.1584 1.92271 33.5292 1.90074 31.8982C1.87694 30.0232 2.60745 28.5394 4.18564 27.4664C4.23324 27.4341 4.27535 27.3911 4.34676 27.3283V27.3247ZM20.6138 37.1662C26.2162 37.1662 31.8186 37.1662 37.421 37.1662C37.648 37.1662 37.8842 37.2415 37.8787 36.8414C37.8549 35.0507 37.8842 33.2601 37.8586 31.4694C37.8439 30.4018 37.3917 29.5047 36.5349 28.8337C35.9856 28.403 35.3906 28.0298 34.8413 27.5992C34.5411 27.3642 34.2317 27.2906 33.8545 27.2906C25.5864 27.2978 17.3165 27.296 9.04837 27.2978C8.29955 27.2978 7.49215 27.1381 6.8184 27.3606C6.11352 27.5956 5.53497 28.2003 4.90516 28.6488C3.84876 29.4024 3.3343 30.4234 3.33796 31.7045C3.34345 33.3785 3.35261 35.0525 3.3288 36.7248C3.32331 37.1034 3.44049 37.1751 3.80299 37.1751C9.40539 37.1626 15.0078 37.1662 20.6102 37.1662H20.6138ZM20.6028 25.8875C24.812 25.8875 29.0211 25.8839 33.2302 25.8929C33.5506 25.8929 33.6769 25.8731 33.5597 25.4999C32.8073 23.1208 32.0841 20.7326 31.3426 18.3498C31.0002 17.2536 30.2496 16.7225 29.0742 16.7225C23.4278 16.7225 17.7797 16.7225 12.1333 16.7225C10.9378 16.7225 10.1835 17.2643 9.8393 18.3803C9.11428 20.7362 8.40391 23.0992 7.66425 25.4515C7.54158 25.8444 7.64045 25.8965 8.02126 25.8947C12.2157 25.8821 16.4102 25.8875 20.6047 25.8875H20.6028ZM20.6102 39.9867C26.5439 39.9867 32.4759 39.9867 38.4097 39.9867C39.3104 39.9867 39.2848 39.9867 39.3214 39.0914C39.3397 38.6644 39.2189 38.5657 38.785 38.5657C26.7984 38.5782 14.8137 38.5764 2.82715 38.5764C1.90257 38.5764 1.92638 38.5764 1.89525 39.4933C1.88244 39.897 1.99961 39.9957 2.40789 39.9957C8.47531 39.9813 14.5427 39.9867 20.612 39.9867H20.6102ZM6.9191 44.2158C7.62214 44.2158 8.32519 44.2248 9.02823 44.2122C9.53171 44.205 9.80451 43.9395 9.81366 43.4478C9.82648 42.8611 9.80634 42.2744 9.82099 41.6895C9.82648 41.458 9.75142 41.3898 9.51524 41.3916C7.79607 41.4006 6.07507 41.4006 4.35591 41.3916C4.11424 41.3916 4.05199 41.4706 4.05565 41.6949C4.06847 42.2654 4.05382 42.8378 4.06114 43.4102C4.06847 43.9538 4.33577 44.2086 4.89784 44.2158C5.57159 44.223 6.24351 44.2158 6.91726 44.2158H6.9191ZM34.2738 41.397C33.4206 41.397 32.5693 41.406 31.7161 41.3916C31.4579 41.388 31.3829 41.4688 31.3902 41.7146C31.4067 42.2852 31.3884 42.8575 31.3975 43.4299C31.4067 43.9466 31.6758 44.2122 32.2086 44.214C33.5854 44.2212 34.9603 44.2212 36.3371 44.214C36.8681 44.2104 37.1391 43.9449 37.1482 43.4299C37.1592 42.8593 37.1391 42.287 37.1555 41.7146C37.1629 41.467 37.0878 41.3862 36.8296 41.3916C35.9783 41.406 35.1251 41.397 34.2719 41.397H34.2738ZM5.63201 23.7721C5.36288 23.7721 5.09374 23.7631 4.82644 23.7739C4.3852 23.79 4.11607 24.0269 4.0648 24.4252C3.95678 25.2703 4.11973 25.7224 4.58843 25.8534C4.68729 25.8803 4.79531 25.8821 4.89784 25.8839C5.15233 25.8875 5.40682 25.8695 5.65764 25.8893C5.93776 25.9126 6.08606 25.8355 6.15563 25.5394C6.26548 25.0711 6.41012 24.6082 6.58222 24.1578C6.71953 23.7972 6.58405 23.7344 6.25816 23.7667C6.05127 23.7864 5.84073 23.7703 5.63201 23.7721ZM35.9179 25.8857C36.0515 25.8857 36.187 25.8839 36.3207 25.8857C36.7491 25.8929 37.0896 25.7135 37.1244 25.29C37.1921 24.479 37.2251 24.0771 36.7161 23.842C36.6374 23.8062 36.5459 23.7792 36.4598 23.7775C35.8922 23.7703 35.3265 23.7775 34.759 23.7685C34.5118 23.7649 34.5429 23.8761 34.5978 24.0412C34.7205 24.4162 34.8285 24.7966 34.9439 25.1734C35.0891 25.6495 35.4132 25.8869 35.916 25.8857H35.9179Z"/>
</mask>
<path d="M4.34676 27.3247C2.54703 26.6967 2.41338 25.3474 2.73561 23.8528C2.92236 22.979 3.80482 22.3851 4.74039 22.3672C5.39949 22.3546 6.06043 22.3474 6.7177 22.3708C7.02162 22.3815 7.15711 22.299 7.24682 21.9958C7.63862 20.6572 8.06154 19.3277 8.47531 17.9946C9.01541 16.2559 10.3135 15.314 12.1791 15.314C17.798 15.314 23.4187 15.314 29.0376 15.314C30.9288 15.314 32.2104 16.2506 32.7578 18.0287C33.1679 19.3618 33.5872 20.6931 33.9808 22.0316C34.0577 22.2936 34.1713 22.3779 34.444 22.3708C35.1032 22.351 35.7623 22.3564 36.4214 22.3672C37.6517 22.3851 38.5708 23.2858 38.5854 24.4969C38.5909 24.906 38.6294 25.3169 38.5195 25.7242C38.2961 26.555 37.7249 27.0412 36.9193 27.2906C36.9193 27.4234 37.0255 27.4341 37.0896 27.479C38.5287 28.4694 39.2757 29.8295 39.3013 31.5466C39.3269 33.2798 39.3141 35.0131 39.3013 36.7445C39.2995 37.0388 39.3617 37.1626 39.6803 37.2343C40.3339 37.3815 40.7293 37.9198 40.744 38.5908C40.755 39.0465 40.7531 39.5023 40.744 39.9562C40.7257 40.8031 40.1288 41.3791 39.2592 41.397C38.8124 41.4066 38.5891 41.6333 38.5891 42.077C38.5891 42.5471 38.5946 43.0172 38.5891 43.4873C38.5689 44.7002 37.6608 45.6117 36.4305 45.6243C34.9915 45.6386 33.5524 45.6386 32.1152 45.6243C30.905 45.6117 29.9859 44.7074 29.9621 43.5286C29.9511 42.9706 29.9365 42.4108 29.9676 41.8545C29.9878 41.4957 29.8926 41.388 29.5081 41.3898C26.2107 41.406 22.9152 41.3988 19.6178 41.3988C16.9961 41.3988 14.3725 41.4096 11.7507 41.388C11.3223 41.3845 11.2271 41.5154 11.249 41.9012C11.2802 42.4431 11.2655 42.9885 11.2545 43.5304C11.2289 44.711 10.3098 45.6135 9.09963 45.6243C7.66059 45.6386 6.22154 45.6386 4.78433 45.6243C3.55583 45.6117 2.6459 44.6984 2.62759 43.4855C2.62027 42.9562 2.59097 42.4251 2.63674 41.9012C2.67702 41.449 2.49943 41.3378 2.08749 41.3952C1.84948 41.4275 1.60598 41.3952 1.38261 41.2983C0.813221 41.0471 0.48733 40.6201 0.470853 39.9993C0.458037 39.5292 0.459868 39.0591 0.470853 38.589C0.485499 37.9 0.890117 37.3671 1.57668 37.2218C1.87328 37.159 1.91173 37.037 1.9099 36.7894C1.90257 35.1584 1.92271 33.5292 1.90074 31.8982C1.87694 30.0232 2.60745 28.5394 4.18564 27.4664C4.23324 27.4341 4.27535 27.3911 4.34676 27.3283V27.3247ZM20.6138 37.1662C26.2162 37.1662 31.8186 37.1662 37.421 37.1662C37.648 37.1662 37.8842 37.2415 37.8787 36.8414C37.8549 35.0507 37.8842 33.2601 37.8586 31.4694C37.8439 30.4018 37.3917 29.5047 36.5349 28.8337C35.9856 28.403 35.3906 28.0298 34.8413 27.5992C34.5411 27.3642 34.2317 27.2906 33.8545 27.2906C25.5864 27.2978 17.3165 27.296 9.04837 27.2978C8.29955 27.2978 7.49215 27.1381 6.8184 27.3606C6.11352 27.5956 5.53497 28.2003 4.90516 28.6488C3.84876 29.4024 3.3343 30.4234 3.33796 31.7045C3.34345 33.3785 3.35261 35.0525 3.3288 36.7248C3.32331 37.1034 3.44049 37.1751 3.80299 37.1751C9.40539 37.1626 15.0078 37.1662 20.6102 37.1662H20.6138ZM20.6028 25.8875C24.812 25.8875 29.0211 25.8839 33.2302 25.8929C33.5506 25.8929 33.6769 25.8731 33.5597 25.4999C32.8073 23.1208 32.0841 20.7326 31.3426 18.3498C31.0002 17.2536 30.2496 16.7225 29.0742 16.7225C23.4278 16.7225 17.7797 16.7225 12.1333 16.7225C10.9378 16.7225 10.1835 17.2643 9.8393 18.3803C9.11428 20.7362 8.40391 23.0992 7.66425 25.4515C7.54158 25.8444 7.64045 25.8965 8.02126 25.8947C12.2157 25.8821 16.4102 25.8875 20.6047 25.8875H20.6028ZM20.6102 39.9867C26.5439 39.9867 32.4759 39.9867 38.4097 39.9867C39.3104 39.9867 39.2848 39.9867 39.3214 39.0914C39.3397 38.6644 39.2189 38.5657 38.785 38.5657C26.7984 38.5782 14.8137 38.5764 2.82715 38.5764C1.90257 38.5764 1.92638 38.5764 1.89525 39.4933C1.88244 39.897 1.99961 39.9957 2.40789 39.9957C8.47531 39.9813 14.5427 39.9867 20.612 39.9867H20.6102ZM6.9191 44.2158C7.62214 44.2158 8.32519 44.2248 9.02823 44.2122C9.53171 44.205 9.80451 43.9395 9.81366 43.4478C9.82648 42.8611 9.80634 42.2744 9.82099 41.6895C9.82648 41.458 9.75142 41.3898 9.51524 41.3916C7.79607 41.4006 6.07507 41.4006 4.35591 41.3916C4.11424 41.3916 4.05199 41.4706 4.05565 41.6949C4.06847 42.2654 4.05382 42.8378 4.06114 43.4102C4.06847 43.9538 4.33577 44.2086 4.89784 44.2158C5.57159 44.223 6.24351 44.2158 6.91726 44.2158H6.9191ZM34.2738 41.397C33.4206 41.397 32.5693 41.406 31.7161 41.3916C31.4579 41.388 31.3829 41.4688 31.3902 41.7146C31.4067 42.2852 31.3884 42.8575 31.3975 43.4299C31.4067 43.9466 31.6758 44.2122 32.2086 44.214C33.5854 44.2212 34.9603 44.2212 36.3371 44.214C36.8681 44.2104 37.1391 43.9449 37.1482 43.4299C37.1592 42.8593 37.1391 42.287 37.1555 41.7146C37.1629 41.467 37.0878 41.3862 36.8296 41.3916C35.9783 41.406 35.1251 41.397 34.2719 41.397H34.2738ZM5.63201 23.7721C5.36288 23.7721 5.09374 23.7631 4.82644 23.7739C4.3852 23.79 4.11607 24.0269 4.0648 24.4252C3.95678 25.2703 4.11973 25.7224 4.58843 25.8534C4.68729 25.8803 4.79531 25.8821 4.89784 25.8839C5.15233 25.8875 5.40682 25.8695 5.65764 25.8893C5.93776 25.9126 6.08606 25.8355 6.15563 25.5394C6.26548 25.0711 6.41012 24.6082 6.58222 24.1578C6.71953 23.7972 6.58405 23.7344 6.25816 23.7667C6.05127 23.7864 5.84073 23.7703 5.63201 23.7721ZM35.9179 25.8857C36.0515 25.8857 36.187 25.8839 36.3207 25.8857C36.7491 25.8929 37.0896 25.7135 37.1244 25.29C37.1921 24.479 37.2251 24.0771 36.7161 23.842C36.6374 23.8062 36.5459 23.7792 36.4598 23.7775C35.8922 23.7703 35.3265 23.7775 34.759 23.7685C34.5118 23.7649 34.5429 23.8761 34.5978 24.0412C34.7205 24.4162 34.8285 24.7966 34.9439 25.1734C35.0891 25.6495 35.4132 25.8869 35.916 25.8857H35.9179Z" fill="#0CCA4A"/>
<path d="M4.34676 27.3247C2.54703 26.6967 2.41338 25.3474 2.73561 23.8528C2.92236 22.979 3.80482 22.3851 4.74039 22.3672C5.39949 22.3546 6.06043 22.3474 6.7177 22.3708C7.02162 22.3815 7.15711 22.299 7.24682 21.9958C7.63862 20.6572 8.06154 19.3277 8.47531 17.9946C9.01541 16.2559 10.3135 15.314 12.1791 15.314C17.798 15.314 23.4187 15.314 29.0376 15.314C30.9288 15.314 32.2104 16.2506 32.7578 18.0287C33.1679 19.3618 33.5872 20.6931 33.9808 22.0316C34.0577 22.2936 34.1713 22.3779 34.444 22.3708C35.1032 22.351 35.7623 22.3564 36.4214 22.3672C37.6517 22.3851 38.5708 23.2858 38.5854 24.4969C38.5909 24.906 38.6294 25.3169 38.5195 25.7242C38.2961 26.555 37.7249 27.0412 36.9193 27.2906C36.9193 27.4234 37.0255 27.4341 37.0896 27.479C38.5287 28.4694 39.2757 29.8295 39.3013 31.5466C39.3269 33.2798 39.3141 35.0131 39.3013 36.7445C39.2995 37.0388 39.3617 37.1626 39.6803 37.2343C40.3339 37.3815 40.7293 37.9198 40.744 38.5908C40.755 39.0465 40.7531 39.5023 40.744 39.9562C40.7257 40.8031 40.1288 41.3791 39.2592 41.397C38.8124 41.4066 38.5891 41.6333 38.5891 42.077C38.5891 42.5471 38.5946 43.0172 38.5891 43.4873C38.5689 44.7002 37.6608 45.6117 36.4305 45.6243C34.9915 45.6386 33.5524 45.6386 32.1152 45.6243C30.905 45.6117 29.9859 44.7074 29.9621 43.5286C29.9511 42.9706 29.9365 42.4108 29.9676 41.8545C29.9878 41.4957 29.8926 41.388 29.5081 41.3898C26.2107 41.406 22.9152 41.3988 19.6178 41.3988C16.9961 41.3988 14.3725 41.4096 11.7507 41.388C11.3223 41.3845 11.2271 41.5154 11.249 41.9012C11.2802 42.4431 11.2655 42.9885 11.2545 43.5304C11.2289 44.711 10.3098 45.6135 9.09963 45.6243C7.66059 45.6386 6.22154 45.6386 4.78433 45.6243C3.55583 45.6117 2.6459 44.6984 2.62759 43.4855C2.62027 42.9562 2.59097 42.4251 2.63674 41.9012C2.67702 41.449 2.49943 41.3378 2.08749 41.3952C1.84948 41.4275 1.60598 41.3952 1.38261 41.2983C0.813221 41.0471 0.48733 40.6201 0.470853 39.9993C0.458037 39.5292 0.459868 39.0591 0.470853 38.589C0.485499 37.9 0.890117 37.3671 1.57668 37.2218C1.87328 37.159 1.91173 37.037 1.9099 36.7894C1.90257 35.1584 1.92271 33.5292 1.90074 31.8982C1.87694 30.0232 2.60745 28.5394 4.18564 27.4664C4.23324 27.4341 4.27535 27.3911 4.34676 27.3283V27.3247ZM20.6138 37.1662C26.2162 37.1662 31.8186 37.1662 37.421 37.1662C37.648 37.1662 37.8842 37.2415 37.8787 36.8414C37.8549 35.0507 37.8842 33.2601 37.8586 31.4694C37.8439 30.4018 37.3917 29.5047 36.5349 28.8337C35.9856 28.403 35.3906 28.0298 34.8413 27.5992C34.5411 27.3642 34.2317 27.2906 33.8545 27.2906C25.5864 27.2978 17.3165 27.296 9.04837 27.2978C8.29955 27.2978 7.49215 27.1381 6.8184 27.3606C6.11352 27.5956 5.53497 28.2003 4.90516 28.6488C3.84876 29.4024 3.3343 30.4234 3.33796 31.7045C3.34345 33.3785 3.35261 35.0525 3.3288 36.7248C3.32331 37.1034 3.44049 37.1751 3.80299 37.1751C9.40539 37.1626 15.0078 37.1662 20.6102 37.1662H20.6138ZM20.6028 25.8875C24.812 25.8875 29.0211 25.8839 33.2302 25.8929C33.5506 25.8929 33.6769 25.8731 33.5597 25.4999C32.8073 23.1208 32.0841 20.7326 31.3426 18.3498C31.0002 17.2536 30.2496 16.7225 29.0742 16.7225C23.4278 16.7225 17.7797 16.7225 12.1333 16.7225C10.9378 16.7225 10.1835 17.2643 9.8393 18.3803C9.11428 20.7362 8.40391 23.0992 7.66425 25.4515C7.54158 25.8444 7.64045 25.8965 8.02126 25.8947C12.2157 25.8821 16.4102 25.8875 20.6047 25.8875H20.6028ZM20.6102 39.9867C26.5439 39.9867 32.4759 39.9867 38.4097 39.9867C39.3104 39.9867 39.2848 39.9867 39.3214 39.0914C39.3397 38.6644 39.2189 38.5657 38.785 38.5657C26.7984 38.5782 14.8137 38.5764 2.82715 38.5764C1.90257 38.5764 1.92638 38.5764 1.89525 39.4933C1.88244 39.897 1.99961 39.9957 2.40789 39.9957C8.47531 39.9813 14.5427 39.9867 20.612 39.9867H20.6102ZM6.9191 44.2158C7.62214 44.2158 8.32519 44.2248 9.02823 44.2122C9.53171 44.205 9.80451 43.9395 9.81366 43.4478C9.82648 42.8611 9.80634 42.2744 9.82099 41.6895C9.82648 41.458 9.75142 41.3898 9.51524 41.3916C7.79607 41.4006 6.07507 41.4006 4.35591 41.3916C4.11424 41.3916 4.05199 41.4706 4.05565 41.6949C4.06847 42.2654 4.05382 42.8378 4.06114 43.4102C4.06847 43.9538 4.33577 44.2086 4.89784 44.2158C5.57159 44.223 6.24351 44.2158 6.91726 44.2158H6.9191ZM34.2738 41.397C33.4206 41.397 32.5693 41.406 31.7161 41.3916C31.4579 41.388 31.3829 41.4688 31.3902 41.7146C31.4067 42.2852 31.3884 42.8575 31.3975 43.4299C31.4067 43.9466 31.6758 44.2122 32.2086 44.214C33.5854 44.2212 34.9603 44.2212 36.3371 44.214C36.8681 44.2104 37.1391 43.9449 37.1482 43.4299C37.1592 42.8593 37.1391 42.287 37.1555 41.7146C37.1629 41.467 37.0878 41.3862 36.8296 41.3916C35.9783 41.406 35.1251 41.397 34.2719 41.397H34.2738ZM5.63201 23.7721C5.36288 23.7721 5.09374 23.7631 4.82644 23.7739C4.3852 23.79 4.11607 24.0269 4.0648 24.4252C3.95678 25.2703 4.11973 25.7224 4.58843 25.8534C4.68729 25.8803 4.79531 25.8821 4.89784 25.8839C5.15233 25.8875 5.40682 25.8695 5.65764 25.8893C5.93776 25.9126 6.08606 25.8355 6.15563 25.5394C6.26548 25.0711 6.41012 24.6082 6.58222 24.1578C6.71953 23.7972 6.58405 23.7344 6.25816 23.7667C6.05127 23.7864 5.84073 23.7703 5.63201 23.7721ZM35.9179 25.8857C36.0515 25.8857 36.187 25.8839 36.3207 25.8857C36.7491 25.8929 37.0896 25.7135 37.1244 25.29C37.1921 24.479 37.2251 24.0771 36.7161 23.842C36.6374 23.8062 36.5459 23.7792 36.4598 23.7775C35.8922 23.7703 35.3265 23.7775 34.759 23.7685C34.5118 23.7649 34.5429 23.8761 34.5978 24.0412C34.7205 24.4162 34.8285 24.7966 34.9439 25.1734C35.0891 25.6495 35.4132 25.8869 35.916 25.8857H35.9179Z" stroke="#808080" stroke-width="0.3" mask="url(#path-1-outside-1_1_113)"/>
<path d="M33.3909 7.39884L33.3908 7.39884C31.6865 7.51549 30.4544 8.32569 29.7013 9.82478L29.7013 9.82491C29.4527 10.3174 29.3409 10.8518 29.3174 11.409C29.3174 11.4091 29.3174 11.4091 29.3174 11.4091L29.2425 11.4059C29.2205 11.9388 28.9587 12.2421 28.5303 12.2492C28.0982 12.2546 27.8254 11.9496 27.798 11.4257L33.3909 7.39884ZM33.3909 7.39884C33.6856 7.37854 33.9257 7.30421 34.0925 7.16981C34.2547 7.03922 34.3408 6.85733 34.345 6.63426L34.3474 6.63188L34.3468 6.59959C34.3428 6.37529 34.2571 6.18749 34.0997 6.05315C33.9439 5.92019 33.7241 5.84486 33.4595 5.82988L33.4595 5.82988C31.1175 5.69913 29.4361 4.05746 29.3174 1.79379L29.3174 1.79352C29.3021 1.52121 29.2233 1.29588 29.0832 1.13847C28.9415 0.979378 28.7435 0.897054 28.5071 0.900964L28.5071 0.900964C28.2732 0.904865 28.0804 0.989686 27.9439 1.1514C27.809 1.3111 27.7355 1.53798 27.7212 1.8154L27.7212 1.8155C27.6097 4.0433 25.9009 5.7133 23.6052 5.82986L23.605 5.82987C23.3255 5.84478 23.0961 5.92113 22.9362 6.05791C22.7741 6.19645 22.6906 6.39078 22.6936 6.62343L22.6936 6.62376C22.6976 6.85522 22.7848 7.04521 22.9497 7.17925C23.1123 7.31138 23.3431 7.38321 23.6254 7.39713L23.6255 7.39713C25.9039 7.50834 27.6043 9.1812 27.7231 11.4296L33.3909 7.39884ZM30.5253 6.66966L30.5255 6.66957C30.5814 6.63568 30.6035 6.61262 30.6113 6.60142C30.5998 6.59024 30.5781 6.57715 30.5449 6.56077C30.5379 6.55735 30.5301 6.55364 30.5219 6.54973C30.4967 6.53768 30.4673 6.5237 30.4457 6.51012L30.4455 6.50996C29.7103 6.04358 29.096 5.45643 28.6335 4.72474L28.6335 4.72467C28.5995 4.67087 28.5725 4.63503 28.5501 4.61311C28.5392 4.60242 28.531 4.59673 28.5255 4.59382C28.5229 4.59244 28.5211 4.5918 28.5201 4.59152L28.5184 4.59122L28.5172 4.5914C28.5167 4.59152 28.5159 4.59174 28.5148 4.59215C28.5142 4.59242 28.5134 4.59277 28.5124 4.59323C28.5074 4.59568 28.4996 4.6008 28.4889 4.61104C28.4668 4.63211 28.4396 4.66763 28.4054 4.72256L28.4051 4.72295C27.943 5.45407 27.3359 6.05083 26.5882 6.50361C26.5321 6.53762 26.4961 6.56452 26.4749 6.58628C26.4589 6.60273 26.4563 6.61119 26.4559 6.6132C26.4562 6.61481 26.4589 6.62429 26.4782 6.64325C26.5008 6.66539 26.5375 6.692 26.5921 6.72532L26.553 6.78933L26.5919 6.72522C27.3381 7.17817 27.9392 7.77841 28.4118 8.50305L30.5253 6.66966ZM30.5253 6.66966C29.7267 7.15633 29.0795 7.7887 28.5826 8.57169M30.5253 6.66966L28.5826 8.57169M28.5826 8.57169C28.5649 8.59867 28.5444 8.62127 28.5218 8.64605C28.5216 8.6463 28.5213 8.64656 28.5211 8.64682C28.4997 8.63797 28.4863 8.62515 28.4751 8.61055C28.4654 8.59792 28.4569 8.58317 28.4467 8.56438C28.4452 8.56162 28.4437 8.5587 28.442 8.55566C28.4336 8.53982 28.4233 8.52067 28.4119 8.50314L28.5826 8.57169ZM30.4856 6.44663C29.7588 5.98551 29.1528 5.40596 28.6969 4.68467L30.5644 6.73371C30.7923 6.59557 30.6592 6.53206 30.5502 6.48008C30.5261 6.46859 30.5032 6.45767 30.4856 6.44663Z" fill="#0CCA4A" stroke="#808080" stroke-width="0.15"/>
<path d="M36.9944 18.604C36.8739 18.5743 36.7715 18.512 36.6919 18.4181C36.5804 18.2865 36.5201 18.1005 36.5076 17.8751L36.5076 17.8748C36.4556 16.8609 36.0337 16.0286 35.2304 15.389L35.2304 15.389C34.6559 14.9312 33.9903 14.6959 33.247 14.6624L33.2469 14.6624C33.0055 14.6513 32.8082 14.5923 32.6706 14.4807C32.53 14.3667 32.4601 14.2047 32.4632 14.0086L32.4632 14.0086C32.4662 13.8142 32.5377 13.6559 32.6799 13.5457C32.8187 13.438 33.0167 13.3826 33.2615 13.3714M36.9944 18.604L33.265 13.4464M36.9944 18.604L36.9748 18.6233L37.1544 18.626C37.3523 18.629 37.5169 18.5605 37.6333 18.4227C37.7476 18.2873 37.8086 18.0933 37.82 17.8567C37.9041 16.12 39.2967 14.7486 41.0643 14.666C41.3085 14.6549 41.5068 14.5985 41.646 14.4902C41.7884 14.3793 41.8606 14.2207 41.8626 14.0267C41.8646 13.8307 41.7942 13.6688 41.6535 13.5549C41.5157 13.4434 41.3185 13.3844 41.0771 13.3732M36.9944 18.604L41.0736 13.4482M33.2615 13.3714C33.2616 13.3714 33.2616 13.3714 33.2616 13.3714L33.265 13.4464M33.2615 13.3714C33.2615 13.3714 33.2615 13.3715 33.2614 13.3715L33.265 13.4464M33.2615 13.3714C35.031 13.2871 36.4216 11.9192 36.5058 10.1808M33.265 13.4464C35.0721 13.3602 36.4946 11.9625 36.5807 10.1844M36.5058 10.1808L36.5807 10.1844M36.5058 10.1808C36.5058 10.1808 36.5058 10.1808 36.5058 10.1808L36.5807 10.1844M36.5058 10.1808C36.5172 9.9435 36.5776 9.74947 36.6915 9.61403C36.8074 9.4761 36.9715 9.40767 37.1691 9.40966L37.1691 9.40966C37.3656 9.41165 37.5268 9.4817 37.64 9.62135C37.7509 9.75822 37.8086 9.95333 37.82 10.1934M36.5807 10.1844L37.7451 10.197M37.82 10.1934L37.7451 10.197M37.82 10.1934C37.82 10.1934 37.82 10.1934 37.82 10.1934L37.7451 10.197M37.82 10.1934C37.9023 11.9206 39.3016 13.2889 41.0771 13.3732M37.7451 10.197C37.8293 11.9643 39.261 13.362 41.0736 13.4482M41.0771 13.3732C41.0771 13.3732 41.0771 13.3732 41.077 13.3732L41.0736 13.4482M41.0771 13.3732L41.0736 13.4482M35.5995 13.952C36.2138 13.5836 36.7129 13.0944 37.0926 12.4942L37.0926 12.4942C37.1158 12.4576 37.1341 12.4326 37.1494 12.4168C37.1566 12.4093 37.1616 12.4055 37.1644 12.4037C37.1662 12.4048 37.1686 12.4065 37.1719 12.4092C37.1858 12.421 37.2053 12.444 37.2313 12.4852C37.6092 13.0872 38.1083 13.5763 38.7204 13.9482C38.7573 13.9708 38.7837 13.9887 38.8012 14.0041C38.8079 14.0099 38.812 14.0144 38.8146 14.0175C38.814 14.0182 38.8133 14.0189 38.8126 14.0198C38.8014 14.0328 38.7779 14.052 38.734 14.078L38.7339 14.0781C38.1174 14.445 37.6242 14.9376 37.2359 15.531C37.2254 15.5466 37.2164 15.5639 37.2097 15.5769C37.2087 15.5788 37.2078 15.5805 37.2069 15.5822C37.1989 15.5976 37.1929 15.6081 37.1864 15.6167C37.1813 15.6232 37.1756 15.6294 37.166 15.6339C37.1437 15.6059 37.1216 15.5782 37.1012 15.5477C36.7199 14.9482 36.2248 14.4594 35.6128 14.0857L35.6128 14.0857C35.5761 14.0633 35.5502 14.0453 35.5333 14.03C35.5256 14.023 35.5213 14.018 35.5191 14.0149C35.5199 14.0137 35.5211 14.0122 35.5226 14.0104C35.5338 13.9971 35.5568 13.9779 35.5995 13.952ZM35.5995 13.952C35.5995 13.952 35.5995 13.9521 35.5995 13.9521L35.5609 13.8878M35.5995 13.952C35.5996 13.952 35.5996 13.952 35.5997 13.952L35.5609 13.8878M35.5609 13.8878C36.1651 13.5253 36.6557 13.0445 37.0292 12.4541L35.5737 14.1497C35.4236 14.0582 35.3796 13.9972 35.5609 13.8878Z" fill="#0CCA4A" stroke="#808080" stroke-width="0.15"/>
<path d="M8.33793 35.1257L8.33794 35.1257C9.96683 35.1441 11.3191 33.8529 11.3285 32.2593C11.3379 30.6539 10.0236 29.3473 8.39414 29.3381C6.76493 29.3289 5.42786 30.626 5.42598 32.2264C5.4241 33.8082 6.73084 35.1073 8.33793 35.1257ZM8.37758 33.5636L8.37741 33.5636C7.6316 33.5619 7.02205 32.9656 7.01685 32.2404C7.01166 31.498 7.63857 30.8865 8.39984 30.8984C9.14533 30.9103 9.74292 31.513 9.73945 32.2423C9.736 32.9621 9.11567 33.567 8.37758 33.5636Z" fill="#0CCA4A" stroke="#808080" stroke-width="0.15"/>
<path d="M32.8333 35.1257C34.4609 35.1275 35.7922 33.8194 35.7847 32.2208L35.7847 32.2207C35.7753 30.6185 34.4419 29.3308 32.8093 29.3381C31.1851 29.3455 29.8671 30.6595 29.8822 32.2649L29.8822 32.2649C29.8972 33.8434 31.2229 35.1256 32.8333 35.1257ZM32.8333 35.1257L32.8334 35.0508V35.1257C32.8334 35.1257 32.8334 35.1257 32.8333 35.1257ZM32.8509 30.9002L32.8507 30.9002C32.0896 30.89 31.4643 31.5031 31.4712 32.2473L32.8509 30.9002ZM32.8509 30.9002C33.5856 30.9086 34.1785 31.4926 34.1953 32.2079L34.1938 32.2093M32.8509 30.9002L34.1938 32.2093M34.1938 32.2093V32.2409M34.1938 32.2093V32.2409M34.1938 32.2409C34.1938 32.9621 33.5755 33.5671 32.8373 33.5672L34.1938 32.2409ZM32.8371 33.5672C32.0891 33.5654 31.4781 32.9723 31.4712 32.2473L32.8371 33.5672Z" fill="#0CCA4A" stroke="#808080" stroke-width="0.15"/>
</svg>
