<svg width="15" height="12" viewBox="0 0 15 12" fill="none" xmlns="http://www.w3.org/2000/svg">
<path d="M8.90815 1.63404C8.82312 1.54765 8.75492 1.44347 8.70762 1.32771C8.66032 1.21196 8.63488 1.087 8.63283 0.960299C8.63078 0.833594 8.65216 0.707737 8.69568 0.590236C8.73921 0.472734 8.804 0.365996 8.88618 0.276389C8.96836 0.186781 9.06625 0.11614 9.17401 0.0686792C9.28177 0.0212185 9.39719 -0.00208894 9.51339 0.000146621C9.62959 0.00238218 9.74419 0.0301149 9.85035 0.0816911C9.95651 0.133267 10.0521 0.20763 10.1313 0.300343L14.7469 5.33315C14.909 5.51009 15 5.74993 15 6C15 6.25007 14.909 6.48991 14.7469 6.66685L10.1313 11.6997C10.0521 11.7924 9.95651 11.8667 9.85035 11.9183C9.74419 11.9699 9.62959 11.9976 9.51339 11.9999C9.39719 12.0021 9.28177 11.9788 9.17401 11.9313C9.06625 11.8839 8.96836 11.8132 8.88618 11.7236C8.804 11.634 8.73921 11.5273 8.69568 11.4098C8.65216 11.2923 8.63078 11.1664 8.63283 11.0397C8.63488 10.913 8.66032 10.788 8.70762 10.6723C8.75492 10.5565 8.82312 10.4524 8.90814 10.366L12.0468 6.94365L0.865429 6.94365C0.635903 6.94365 0.415777 6.84423 0.253478 6.66726C0.0911786 6.49029 4.43989e-07 6.25027 4.54929e-07 6C4.65869e-07 5.74973 0.0911786 5.50971 0.253478 5.33274C0.415777 5.15577 0.635903 5.05635 0.865429 5.05635L12.0468 5.05635L8.90815 1.63404Z" fill="#808080"/>
</svg>
