<svg width="44" height="38" viewBox="0 0 44 38" fill="none" xmlns="http://www.w3.org/2000/svg">
<path d="M1.16895 18.4751C1.16895 18.4616 1.17115 18.4481 1.17549 18.4352C1.37638 17.8389 1.81562 17.4194 2.26717 17.0291C6.04465 13.7578 9.8198 10.4841 13.5949 7.21036C16.0018 5.12315 18.4087 3.03596 20.8161 0.949418L20.8163 0.949277C20.9403 0.842176 21.083 0.745887 21.2183 0.654616C21.2804 0.612743 21.3409 0.571926 21.3973 0.531606C21.4185 0.516449 21.4439 0.508301 21.47 0.508301H21.4711H21.4722H21.4732H21.4743H21.4754H21.4764H21.4775H21.4786H21.4797H21.4807H21.4818H21.4829H21.4839H21.485H21.4861H21.4872H21.4882H21.4893H21.4904H21.4914H21.4925H21.4936H21.4947H21.4957H21.4968H21.4979H21.4989H21.5H21.5011H21.5022H21.5032H21.5043H21.5054H21.5064H21.5075H21.5086H21.5097H21.5107H21.5118H21.5129H21.5139H21.515H21.5161H21.5172H21.5182H21.5193H21.5204H21.5214H21.5225H21.5236H21.5246H21.5257H21.5268H21.5279H21.5289H21.53H21.5311H21.5321H21.5332H21.5343H21.5354H21.5364H21.5375H21.5386H21.5396H21.5407H21.5418H21.5428H21.5439H21.545H21.5461H21.5471H21.5482H21.5493H21.5503H21.5514H21.5525H21.5535H21.5546H21.5557H21.5568H21.5578H21.5589H21.56H21.561H21.5621H21.5632H21.5642H21.5653H21.5664H21.5675H21.5685H21.5696H21.5707H21.5717H21.5728H21.5739H21.5749H21.576H21.5771H21.5782H21.5792H21.5803H21.5814H21.5824H21.5835H21.5846H21.5856H21.5867H21.5878H21.5889H21.5899H21.591H21.5921H21.5931H21.5942H21.5953H21.5963H21.5974H21.5985H21.5995H21.6006H21.6017H21.6028H21.6038H21.6049H21.606H21.607H21.6081H21.6092H21.6102H21.6113H21.6124H21.6134H21.6145H21.6156H21.6167H21.6177H21.6188H21.6199H21.6209H21.622H21.6231H21.6241H21.6252H21.6263H21.6273H21.6284H21.6295H21.6305H21.6316H21.6327H21.6338H21.6348H21.6359H21.637H21.638H21.6391H21.6402H21.6412H21.6423H21.6434H21.6444H21.6455H21.6466H21.6477H21.6487H21.6498H21.6509H21.6519H21.653H21.6541H21.6551H21.6562H21.6573H21.6583H21.6594H21.6605H21.6615H21.6626H21.6637H21.6648H21.6658H21.6669H21.668H21.669H21.6701H21.6712H21.6722H21.6733H21.6744H21.6754H21.6765H21.6776H21.6786H21.6797H21.6808H21.6818H21.6829H21.684H21.6851H21.6861H21.6872H21.6883H21.6893H21.6904H21.6915H21.6925H21.6936H21.6947H21.6957H21.6968H21.6979H21.6989H21.7H21.7011H21.7021H21.7032H21.7043H21.7054H21.7064H21.7075H21.7086H21.7096H21.7107H21.7118H21.7128H21.7139H21.715H21.716H21.7171H21.7182H21.7192H21.7203H21.7214H21.7224H21.7235H21.7246H21.7257H21.7267H21.7278H21.7289H21.7299H21.731H21.7321H21.7331H21.7342H21.7353H21.7363H21.7374H21.7385H21.7395H21.7406H21.7417H21.7427H21.7438H21.7449H21.746H21.747H21.7481H21.7492H21.7502H21.7513H21.7524H21.7534H21.7545H21.7556H21.7566H21.7577H21.7588H21.7598H21.7609H21.762H21.763H21.7641H21.7652H21.7663H21.7673H21.7684H21.7695H21.7705H21.7716H21.7727H21.7737H21.7748H21.7759H21.7769H21.778H21.7791H21.7801H21.7812H21.7823H21.7833H21.7844H21.7855H21.7866H21.7876H21.7887H21.7898H21.7908H21.7919H21.793H21.794H21.7951H21.7962H21.7972H21.7983H21.7994H21.8004H21.8015H21.8026H21.8036H21.8047H21.8058H21.8069H21.8079H21.809H21.8101H21.8111H21.8122H21.8133H21.8143H21.8154H21.8165H21.8175H21.8186H21.8197H21.8207H21.8218H21.8229H21.8239H21.825H21.8261H21.8272H21.8282H21.8293H21.8304H21.8314H21.8325H21.8336H21.8346H21.8357H21.8368H21.8378H21.8389H21.84H21.8411H21.8421H21.8432H21.8443H21.8453H21.8464H21.8475H21.8485H21.8496H21.8507H21.8517H21.8528H21.8539H21.8549H21.856H21.8571H21.8582H21.8592H21.8603H21.8614H21.8624H21.8635H21.8646H21.8656H21.8667H21.8678H21.8688H21.8699H21.871H21.872H21.8731H21.8742H21.8753H21.8763H21.8774H21.8785H21.8795H21.8806H21.8817H21.8827H21.8838H21.8849H21.886H21.887H21.8881H21.8892H21.8902H21.8913H21.8924H21.8934H21.8945H21.8956H21.8966H21.8977H21.8988H21.8999H21.9009H21.902H21.9031H21.9041H21.9052H21.9063H21.9073H21.9084H21.9095H21.9105H21.9116H21.9127H21.9138H21.9148H21.9159H21.917H21.918H21.9191H21.9202H21.9212H21.9223H21.9234H21.9245H21.9255H21.9266H21.9277H21.9287H21.9298H21.9309H21.9319H21.933H21.9341H21.9352H21.9362H21.9373H21.9384H21.9394H21.9405H21.9416H21.9426H21.9437H21.9448H21.9459H21.9469H21.948H21.9491H21.9501H21.9512H21.9523H21.9534H21.9544H21.9555H21.9566H21.9576H21.9587H21.9598H21.9608H21.9619H21.963H21.9641H21.9651H21.9662H21.9673H21.9683H21.9694H21.9705H21.9716H21.9726H21.9737H21.9748H21.9758H21.9769H21.978H21.979H21.9801H21.9812H21.9823H21.9833H21.9844H21.9855H21.9865H21.9876H21.9887H21.9898H21.9908H21.9919H21.993H21.994H21.9951H21.9962H21.9973H21.9983H21.9994H22.0005H22.0015H22.0026H22.0037H22.0048H22.0058H22.0069H22.008H22.009H22.0101H22.0112H22.0123H22.0133H22.0144H22.0155H22.0165H22.0176C22.0423 0.508301 22.0665 0.515633 22.0871 0.529371C22.7869 0.997065 23.4094 1.55615 24.0243 2.10834C24.3093 2.36431 24.5927 2.61881 24.8813 2.86203L24.8814 2.86206C25.6083 3.47503 26.3255 4.10006 27.0418 4.7244C27.4389 5.07044 27.8357 5.41628 28.2338 5.75973L1.16895 18.4751ZM1.16895 18.4751V19.2438C1.16895 19.2588 1.17162 19.2736 1.17684 19.2875C1.38806 19.8533 1.71739 20.2504 2.1566 20.497C2.59327 20.7422 3.1266 20.832 3.73588 20.8069L3.73601 20.8069M1.16895 18.4751L3.73601 20.8069M36.8498 13.2416L36.8498 13.2417C37.0197 13.3565 37.1707 13.5005 37.2983 13.6509M36.8498 13.2416L37.203 13.7318M36.8498 13.2416C36.6968 13.1383 36.6032 13.0274 36.5464 12.9029C36.4888 12.7768 36.4646 12.6273 36.4658 12.4405C36.4804 10.2313 36.4786 8.02126 36.4767 5.81211C36.4761 5.07605 36.4755 4.34009 36.4755 3.60428C36.4755 3.17549 36.386 2.84364 36.1488 2.6235C35.914 2.40565 35.5622 2.3234 35.103 2.32282C33.9662 2.3213 32.8298 2.32181 31.6937 2.32231C31.1258 2.32257 30.558 2.32282 29.9902 2.32282C29.6976 2.32282 29.4536 2.33823 29.2531 2.38101C29.0517 2.42401 28.8865 2.49623 28.7593 2.6153C28.5053 2.85299 28.4432 3.23871 28.4432 3.77877V3.78331V3.78785V3.79239V3.79692V3.80146V3.806V3.81054V3.81507V3.81961V3.82415V3.82869V3.83322V3.83776V3.8423V3.84684V3.85137V3.85591V3.86045V3.86499V3.86952V3.87406V3.8786V3.88314V3.88767V3.89221V3.89675V3.90129V3.90582V3.91036V3.9149V3.91944V3.92398V3.92851V3.93305V3.93759V3.94213V3.94666V3.9512V3.95574V3.96028V3.96482V3.96935V3.97389V3.97843V3.98297V3.98751V3.99204V3.99658V4.00112V4.00566V4.0102V4.01474V4.01927V4.02381V4.02835V4.03289V4.03743V4.04197V4.0465V4.05104V4.05558V4.06012V4.06466V4.0692V4.07374V4.07827V4.08281V4.08735V4.09189V4.09643V4.10097V4.10551V4.11005V4.11459V4.11913V4.12366V4.1282V4.13274V4.13728V4.14182V4.14636V4.1509V4.15544V4.15998V4.16452V4.16906V4.1736V4.17814V4.18268V4.18722V4.19176V4.1963V4.20084V4.20538V4.20992V4.21446V4.219V4.22354V4.22808V4.23262V4.23716V4.2417V4.24624V4.25078V4.25532V4.25987V4.26441V4.26895V4.27349V4.27803V4.28257V4.28711V4.29165V4.29619V4.30074V4.30528V4.30982V4.31436V4.3189V4.32344V4.32799V4.33253V4.33707V4.34161V4.34615V4.3507V4.35524V4.35978V4.36432V4.36887V4.37341V4.37795V4.3825V4.38704V4.39158V4.39612V4.40067V4.40521V4.40975V4.4143V4.41884V4.42338V4.42793V4.43247V4.43702V4.44156V4.4461V4.45065V4.45519V4.45974V4.46428V4.46883V4.47337V4.47791V4.48246V4.487V4.49155V4.49609V4.50064V4.50518V4.50973V4.51428V4.51882V4.52337V4.52791V4.53246V4.537V4.54155V4.5461V4.55064V4.55519V4.55974V4.56428V4.56883V4.57337V4.57792V4.58247V4.58702V4.59156V4.59611V4.60066V4.60521V4.60975V4.6143V4.61885V4.6234V4.62794V4.63249V4.63704V4.64159V4.64614V4.65069V4.65524V4.65978V4.66433V4.66888V4.67343V4.67798V4.68253V4.68708V4.69163V4.69618V4.70073V4.70528V4.70983V4.71438V4.71893V4.72348V4.72803V4.73258V4.73713V4.74169V4.74624V4.75079V4.75534V4.75989V4.76444V4.769V4.77355V4.7781V4.78265V4.7872V4.79176V4.79631V4.80086V4.80542V4.80997V4.81452V4.81908V4.82363V4.82818V4.83274V4.83729V4.84185V4.8464V4.85095V4.85551V4.86006V4.86462V4.86917V4.87373V4.87828V4.88284V4.88739V4.89195V4.89651V4.90106V4.90562V4.91017V4.91473V4.91929V4.92384V4.9284V4.93296V4.93752V4.94207V4.94663V4.95119V4.95575V4.9603V4.96486V4.96942V4.97398V4.97854V4.9831V4.98766V4.99222V4.99678V5.00133V5.00589V5.01045V5.01501V5.01957V5.02413V5.0287V5.03326V5.03782V5.04238V5.04694V5.0515V5.05606V5.06062V5.06519V5.06975V5.07431V5.07887V5.08343V5.088V5.09256V5.09712V5.10169V5.10625V5.11081V5.11538V5.11994V5.12451V5.12907V5.13363V5.1382V5.14276V5.14733V5.15189V5.15646V5.16103V5.16559V5.17016V5.17472V5.17929V5.18386V5.18842V5.19299V5.19756V5.20212V5.20669V5.21126V5.21583V5.2204V5.22496V5.22953V5.2341V5.23867V5.24324V5.24781V5.25238V5.25695V5.26152V5.26609V5.27066V5.27523V5.2798V5.28437V5.28894V5.29351V5.29808V5.30266V5.30723V5.3118V5.31637V5.32094V5.32552V5.33009V5.33466V5.33924V5.34381V5.34838V5.35296V5.35753V5.36211V5.36668V5.37126V5.37583V5.38041V5.38498V5.38956V5.39413V5.39871V5.40329V5.40786V5.41244V5.41702V5.42159V5.42617V5.43075V5.43533V5.4399V5.44448V5.44906V5.45364V5.45822V5.4628V5.46738V5.47196V5.47654V5.48112V5.4857V5.49028V5.49486V5.49944V5.50402V5.5086V5.51318V5.51777V5.52235V5.52693V5.53151V5.5361V5.54068V5.54526V5.54985V5.55443V5.55901V5.5636V5.56818V5.57277V5.57735V5.58194V5.58652V5.59111V5.5957V5.60028V5.60487V5.60946V5.61404V5.61863V5.62322V5.62781V5.63239V5.63698V5.64157V5.64616V5.65075V5.65534V5.65993V5.66452V5.66911V5.6737V5.67829V5.68288V5.68747V5.69206V5.69665V5.70124V5.70584V5.71043V5.71502V5.71961V5.72421V5.7288V5.73339V5.73799V5.74258V5.74718V5.75177V5.75637V5.76096V5.76556V5.77015V5.77475V5.77934V5.78394V5.78854V5.79314V5.79773V5.80233V5.80693V5.81153V5.81612V5.82072V5.82532V5.82992V5.83452V5.83912V5.84372V5.84832V5.85292V5.85752V5.86212V5.86673V5.87133V5.87593V5.88053V5.88513V5.88974V5.89434V5.89894V5.90355V5.90815V5.91276V5.91736V5.92197V5.92657V5.93118V5.93578V5.94039V5.94177M36.8498 13.2416L28.4432 5.94177M37.2983 13.6509L37.203 13.7318M37.2983 13.6509C37.2983 13.6509 37.2982 13.6508 37.2981 13.6507L37.203 13.7318M37.2983 13.6509C37.6598 14.075 37.6151 14.6516 37.2137 15.0244L37.1355 14.9402L37.2137 15.0244C36.8348 15.3761 36.2401 15.4448 35.8061 15.1118C35.3754 14.7814 34.9749 14.416 34.5807 14.0563L34.5577 14.0352M37.203 13.7318C37.5201 14.1036 37.4823 14.6043 37.1286 14.9328C36.7896 15.2475 36.2627 15.3046 35.8822 15.0126C35.4557 14.6855 35.0587 14.3232 34.6633 13.9624L34.6418 13.9428M34.5577 14.0352L34.6418 13.9428M34.5577 14.0352L34.5576 14.0352L34.6418 13.9428M34.5577 14.0352C34.2849 13.7867 34.2857 13.4494 34.2863 13.1806C34.2863 13.168 34.2863 13.1556 34.2863 13.1433C34.2867 12.3867 34.2862 11.63 34.2857 10.8733C34.2844 8.8556 34.2831 6.83758 34.2973 4.81916C34.2985 4.60792 34.274 4.51433 34.23 4.46655C34.1898 4.42302 34.1007 4.38508 33.8617 4.39521L33.8615 4.39522C32.8852 4.43531 31.9061 4.42039 30.9328 4.39986M34.6418 13.9428L29.9049 9.13223M30.9328 4.39986L30.9354 4.27489M30.9328 4.39986C30.9328 4.39986 30.9328 4.39986 30.9329 4.39986L30.9354 4.27489M30.9328 4.39986C30.7641 4.39641 30.6997 4.41757 30.6716 4.44199C30.6494 4.46126 30.6214 4.50937 30.625 4.66899L30.625 4.66926C30.6384 5.33534 30.6367 6.00539 30.6351 6.67372C30.6338 7.15993 30.6326 7.64522 30.6372 8.12741M30.9354 4.27489C31.9087 4.29542 32.8844 4.31024 33.8564 4.27032L30.9354 4.27489ZM30.6372 8.12741L30.5122 8.1286L30.6372 8.12726C30.6372 8.12731 30.6372 8.12736 30.6372 8.12741ZM30.6372 8.12741C30.6398 8.36719 30.6032 8.59718 30.4952 8.79438C30.3855 8.99464 30.208 9.15053 29.9494 9.24905L29.9049 9.13223M29.9049 9.13223L29.9493 9.24905C29.7055 9.34191 29.4746 9.3507 29.2561 9.29185C29.04 9.23361 28.8432 9.11115 28.6616 8.95271L28.6616 8.9527C27.6429 8.06382 26.6205 7.17679 25.598 6.28962C24.3892 5.24089 23.1802 4.19197 21.9768 3.13957M29.9049 9.13223L21.9768 3.13957M21.9768 3.13957C21.8592 3.03675 21.7943 3.0099 21.747 3.00933C21.7007 3.00878 21.6351 3.03328 21.5155 3.13743L21.5155 3.13746C16.4875 7.51207 11.4526 11.8802 6.41808 16.2479C5.48575 17.0568 4.55343 17.8656 3.62117 18.6745L3.62093 18.6747C3.60553 18.688 3.59105 18.7013 3.57681 18.7149M21.9768 3.13957L3.57681 18.7149M3.57681 18.7149C3.59951 18.715 3.62364 18.7134 3.65199 18.7111C3.65552 18.7108 3.65915 18.7105 3.66287 18.7101C3.69174 18.7077 3.72622 18.7048 3.76 18.7048H3.76054C4.59732 18.7084 5.43388 18.7097 6.27034 18.7111C6.77243 18.7119 7.27447 18.7127 7.77651 18.7139C8.27654 18.7151 8.64586 18.7867 8.88446 19.0125C9.1253 19.2404 9.2013 19.5947 9.2013 20.0707C9.2013 21.272 9.20298 22.4735 9.20467 23.6751C9.20906 26.8131 9.21346 29.9516 9.18788 33.0893L9.18788 33.0893C9.18263 33.6892 9.37412 34.2008 9.73578 34.5589C10.0971 34.9165 10.6411 35.1337 11.3656 35.1199C13.3692 35.0807 15.3753 35.0897 17.3793 35.0987C18.1144 35.102 18.8492 35.1053 19.5834 35.1062C19.9097 35.1062 20.1882 35.1682 20.4054 35.2952C20.6253 35.4239 20.776 35.6157 20.8473 35.86C21.0151 36.4355 20.668 36.9987 20.0588 37.1368L3.57681 18.7149ZM3.73601 20.8069C4.2184 20.7865 4.70264 20.7896 5.19009 20.794C5.21824 20.7943 5.2464 20.7945 5.27458 20.7948C5.73322 20.799 6.19478 20.8033 6.65551 20.7887M3.73601 20.8069L6.65551 20.7887M28.4432 5.94177C28.396 5.91407 28.3594 5.87837 28.3169 5.83707C28.2923 5.81306 28.2657 5.78715 28.2339 5.75982L28.4432 5.94177ZM6.65551 20.7887C6.86085 20.7824 6.9337 20.8127 6.96517 20.8447M6.65551 20.7887L6.96517 20.8447M6.96517 20.8447C6.99799 20.8781 7.02249 20.9494 7.02187 21.1366L6.96517 20.8447Z" fill="#808080" stroke="#808080" stroke-width="0.25" stroke-linejoin="round"/>
<path d="M20.8325 26.9921C20.8325 32.8729 25.9457 37.6427 32.2133 37.6427C38.481 37.6427 43.5941 32.8729 43.5941 26.9921C43.5941 21.1114 38.481 16.3416 32.2133 16.3416C25.9457 16.3416 20.8325 21.1114 20.8325 26.9921ZM22.9119 26.9933C22.9119 22.2093 27.0763 18.3034 32.2133 18.3034C37.3503 18.3034 41.5147 22.2093 41.5147 26.9933C41.5147 31.7772 37.3503 35.6831 32.2133 35.6831C27.0763 35.6831 22.9119 31.7772 22.9119 26.9933Z" fill="#808080" stroke="#808080" stroke-width="0.25" stroke-linejoin="round"/>
<path d="M35.6038 27.9906C35.6079 27.9976 35.6113 28.0048 35.6139 28.0123C36.1014 28.8521 36.1617 29.7395 35.7947 30.6345C35.3597 31.6954 34.5175 32.3236 33.3605 32.5773L33.3605 32.5773C33.2653 32.5982 33.1647 32.6077 33.0739 32.6163C33.06 32.6176 33.0463 32.6189 33.0329 32.6202C33.038 32.8213 33.038 33.0221 33.038 33.221V33.2216C33.038 33.6176 32.766 33.9302 32.3684 34.0156L32.3684 34.0156C31.839 34.1292 31.3252 33.7647 31.3208 33.2318L31.3208 33.2308L31.3208 33.2302V33.2296V33.229V33.2284V33.2278V33.2272V33.2266V33.2261V33.2255V33.2249V33.2243V33.2237V33.2231V33.2225V33.2219V33.2214V33.2208V33.2202V33.2196V33.219V33.2184V33.2178V33.2172V33.2167V33.2161V33.2155V33.2149V33.2143V33.2137V33.2131V33.2125V33.212V33.2114V33.2108V33.2102V33.2096V33.209V33.2084V33.2078V33.2073V33.2067V33.2061V33.2055V33.2049V33.2043V33.2037V33.2031V33.2026V33.202V33.2014V33.2008V33.2002V33.1996V33.199V33.1985V33.1979V33.1973V33.1967V33.1961V33.1955V33.1949V33.1943V33.1938V33.1932V33.1926V33.192V33.1914V33.1908V33.1902V33.1897V33.1891V33.1885V33.1879V33.1873V33.1867V33.1861V33.1855V33.185V33.1844V33.1838V33.1832V33.1826V33.182V33.1814V33.1809V33.1803V33.1797V33.1791V33.1785V33.1779V33.1773V33.1768V33.1762V33.1756V33.175V33.1744V33.1738V33.1732V33.1727V33.1721V33.1715V33.1709V33.1703V33.1697V33.1691V33.1685V33.168V33.1674V33.1668V33.1662V33.1656V33.165V33.1644V33.1639V33.1633V33.1627V33.1621V33.1615V33.1609V33.1603V33.1598V33.1592V33.1586V33.158V33.1574V33.1568V33.1562V33.1557V33.1551V33.1545V33.1539V33.1533V33.1527V33.1522V33.1516V33.151V33.1504V33.1498V33.1492V33.1486V33.1481V33.1475V33.1469V33.1463V33.1457V33.1451V33.1445V33.144V33.1434V33.1428V33.1422V33.1416V33.141V33.1404V33.1399V33.1393V33.1387V33.1381V33.1375V33.1369V33.1363V33.1358V33.1352V33.1346V33.134V33.1334V33.1328V33.1323V33.1317V33.1311V33.1305V33.1299V33.1293V33.1287V33.1282V33.1276V33.127V33.1264V33.1258V33.1252V33.1246V33.1241V33.1235V33.1229V33.1223V33.1217V33.1211V33.1205V33.12V33.1194V33.1188V33.1182V33.1176V33.117V33.1165V33.1159V33.1153V33.1147V33.1141V33.1135V33.1129V33.1124V33.1118V33.1112V33.1106V33.11V33.1094V33.1089V33.1083V33.1077V33.1071V33.1065V33.1059V33.1053V33.1048V33.1042V33.1036V33.103V33.1024V33.1018V33.1012V33.1007V33.1001V33.0995V33.0989V33.0983V33.0977V33.0972V33.0966V33.096V33.0954V33.0948V33.0942V33.0936V33.0931V33.0925V33.0919V33.0913V33.0907V33.0901V33.0896V33.089V33.0884V33.0878V33.0872V33.0866V33.086V33.0855V33.0849V33.0843V33.0837V33.0831V33.0825V33.082V33.0814V33.0808V33.0802V33.0796V33.079V33.0784V33.0779V33.0773V33.0767V33.0761V33.0755V33.0749V33.0744V33.0738V33.0732V33.0726V33.072V33.0714V33.0708V33.0703V33.0697V33.0691V33.0685V33.0679V33.0673V33.0667V33.0662V33.0656V33.065V33.0644V33.0638V33.0632V33.0627V33.0621V33.0615V33.0609V33.0603V33.0597V33.0591V33.0586V33.058V33.0574V33.0568V33.0562V33.0556V33.0551V33.0545V33.0539V33.0533V33.0527V33.0521V33.0515V33.051V33.0504V33.0498V33.0492V33.0486V33.048V33.0475V33.0469V33.0463V33.0457V33.0451V33.0445V33.0439V33.0434V33.0428V33.0422V33.0416V33.041V33.0404V33.0398V33.0393V33.0387V33.0381V33.0375V33.0369V33.0363V33.0358V33.0352V33.0346V33.034V33.0334V33.0328V33.0322V33.0317V33.0311V33.0305V33.0299V33.0293V33.0287V33.0281V33.0276V33.027V33.0264V33.0258V33.0252V33.0246V33.024V33.0235V33.0229V33.0223V33.0217V33.0211V33.0205V33.02V33.0194V33.0188V33.0182V33.0176V33.017V33.0164V33.0159V33.0153V33.0147V33.0141V33.0135V33.0129V33.0123V33.0118V33.0112V33.0106V33.01V33.0094V33.0088V33.0082V33.0077V33.0071V33.0065V33.0059V33.0053V33.0047V33.0041V33.0036V33.003V33.0024V33.0018V33.0012V33.0006V33V32.9995V32.9989V32.9983V32.9977V32.9971V32.9965V32.9959V32.9954V32.9948V32.9942V32.9936V32.993V32.9924V32.9918V32.9913V32.9907V32.9901V32.9895V32.9889V32.9883V32.9877V32.9872V32.9866V32.986V32.9854V32.9848V32.9842V32.9836V32.9831V32.9825V32.9819V32.9813V32.9807V32.9801V32.9795V32.979V32.9784V32.9778V32.9772V32.9766V32.976V32.9754V32.9748V32.9743V32.9737V32.9731V32.9725V32.9719V32.9713V32.9707V32.9702V32.9696V32.969V32.9684V32.9678V32.9672V32.9666V32.966V32.9655V32.9649V32.9643V32.9637V32.9631V32.9625V32.9619V32.9614V32.9608V32.9602V32.9596V32.959V32.9584V32.9578V32.9572V32.9567V32.9561V32.9555V32.9549V32.9543V32.9537V32.9531V32.9525V32.952V32.9514V32.9508V32.9502V32.9496V32.949V32.9484V32.9479V32.9473V32.9467V32.9461V32.9455V32.9449V32.9443V32.9437V32.9432V32.9426V32.942V32.9414V32.9408V32.9402V32.9396V32.939V32.9385V32.9379V32.9373V32.9367V32.9361V32.9355V32.9349V32.9343V32.9337V32.9332V32.9326V32.932V32.9314V32.9308V32.9302V32.9296V32.929V32.9284V32.9278V32.9272V32.9266V32.926V32.9254V32.9248V32.9242V32.9236V32.923V32.9224V32.9218V32.9212V32.9206V32.92V32.9194V32.9188V32.9182V32.9176V32.917V32.9164V32.9158V32.9152V32.9146V32.914V32.9134V32.9128V32.9122V32.9116V32.911V32.9104V32.9098V32.9092V32.9086V32.908V32.9074V32.9068V32.9061V32.9055V32.9049V32.9043V32.9037V32.9031V32.9025V32.9019V32.9013V32.9007V32.9001V32.8995V32.8989V32.8983V32.8977V32.8971V32.8965V32.8959V32.8953V32.8947V32.8941V32.8935V32.8929V32.8923V32.8917V32.8911V32.8905V32.8899V32.8893V32.8887V32.8881V32.8875V32.8869V32.8863V32.8857V32.8851V32.8845V32.8839V32.8833V32.8827V32.8821V32.8815V32.8809V32.8803V32.8797V32.8791V32.8785V32.8779V32.8773V32.8767V32.8761V32.8755V32.8749V32.8743V32.8737V32.8731V32.8725V32.8719V32.8713V32.8707V32.8701V32.8695V32.8689V32.8683V32.8677V32.8671V32.8665V32.8659V32.8653V32.8647V32.864V32.8634V32.8628V32.8622V32.8616V32.861V32.8604V32.8598V32.8592V32.8586V32.858V32.8574V32.8568V32.8562V32.8556V32.855V32.8544V32.8538V32.8532V32.8526V32.852V32.8514V32.8508V32.8502V32.8496V32.849V32.8484V32.8478V32.8472V32.8466V32.846V32.8454V32.8448V32.8442V32.8436V32.843V32.8424V32.8418V32.8412V32.8406V32.84V32.8394V32.8388V32.8382V32.8376V32.837V32.8364V32.8358V32.8352V32.8346V32.834V32.8334V32.8328V32.8322V32.8316V32.831V32.8304V32.8298V32.8292V32.8286V32.828V32.8274V32.8268V32.8262V32.8256V32.825V32.8244V32.8238V32.8232V32.8225V32.8219V32.8213V32.8207V32.8201V32.8195V32.8189V32.8183V32.8177V32.8171V32.8165V32.8159V32.8153V32.8147V32.8141V32.8135V32.8129V32.8123V32.8117V32.8111V32.8105V32.8099V32.8093V32.8087V32.8081V32.8075V32.8069V32.8063V32.8057V32.8051V32.8045V32.8039V32.8033V32.8027V32.8021V32.8015V32.8009V32.8003V32.7997V32.7991V32.7985V32.7979V32.7973V32.7967V32.7961V32.7955V32.7949V32.7943V32.7937V32.7931V32.7925V32.7919V32.7913V32.7907V32.7901V32.7895V32.7889V32.7883V32.7877V32.7871V32.7865V32.7859V32.7853V32.7847V32.7841V32.7835V32.7829V32.7823V32.7817V32.7811V32.7804V32.7798V32.7792V32.7786V32.778V32.7774V32.7768V32.7762V32.7756V32.775V32.7744V32.7738V32.7732V32.7726V32.772V32.7714V32.7708V32.7702V32.7696V32.769V32.7684V32.7678V32.7672V32.7666V32.766V32.7654V32.7648V32.7642V32.7636V32.763V32.7624V32.7618V32.7612V32.7606V32.76V32.7594V32.7588V32.7582V32.7576V32.757V32.7564V32.7558V32.7552V32.7546V32.754V32.7534V32.7528V32.7522V32.7516V32.751V32.7504V32.7498V32.7492V32.7486V32.748V32.7474V32.7468V32.7462V32.7456V32.745V32.7444V32.7438V32.7432V32.7426V32.742V32.7414V32.7408V32.7402V32.7396V32.739V32.7383V32.7377V32.7371V32.7365V32.7359V32.7353V32.7347V32.7341V32.7335V32.7329V32.7323V32.7317V32.7311V32.7305V32.7299V32.7293V32.7287V32.7281V32.7275V32.7269V32.7263V32.7257V32.7251V32.7245V32.7239V32.7233V32.7227V32.7221V32.7215V32.7209V32.7203V32.7197V32.7191V32.7185V32.7179V32.7173V32.7167V32.7161V32.7155V32.7149V32.7143V32.7137V32.7131V32.7125V32.7119V32.7113V32.7107V32.7101V32.7095V32.7089V32.7083V32.7077V32.7071V32.7065V32.7059V32.7053V32.7047V32.7041V32.7035V32.7029V32.7023V32.7017V32.7011V32.7005V32.6999V32.6993V32.6987V32.6981V32.6975V32.6969V32.6962V32.6956V32.695V32.6944V32.6938V32.6932V32.6926V32.692V32.6914V32.6908V32.6902V32.6896V32.689V32.6884V32.6878V32.6872V32.6866V32.686V32.6854V32.6848V32.6842V32.6836V32.683V32.6824V32.6818V32.6812V32.6806V32.68V32.6794V32.6788V32.6782V32.6776V32.677V32.6764V32.6758V32.6752V32.6746V32.674V32.6734V32.6728V32.6722V32.6716V32.671V32.6704V32.6698V32.6692V32.6686V32.668V32.6674V32.6668V32.6662V32.6656V32.665V32.6644V32.6638V32.6632V32.6626V32.662V32.6614V32.6608V32.6602V32.6596V32.659V32.6584V32.6578V32.6572V32.6566V32.656V32.6554V32.6547V32.6541V32.6535V32.6529V32.6523V32.6517V32.6511V32.6505V32.6499V32.6493V32.6487V32.6481V32.6475V32.6469V32.6463V32.6457V32.6451V32.6445V32.6439V32.6433V32.6427V32.6421V32.6415V32.6409V32.6403V32.6397V32.6391V32.6385V32.6379V32.6373V32.6367V32.6361V32.6355V32.6349V32.6343V32.6337V32.6331V32.6325V32.6319V32.6313V32.6307V32.6301V32.6295V32.6289V32.6283V32.6277V32.6271V32.6265V32.6259V32.6253V32.6247V32.6241V32.6235V32.6229C31.3208 32.6208 31.3208 32.6188 31.3208 32.6169C31.318 32.6166 31.3152 32.6163 31.3122 32.6159L31.3121 32.6159C30.9881 32.5791 30.6795 32.4925 30.3842 32.3727C29.7757 32.1268 29.3076 31.7297 28.9406 31.2214L28.9405 31.2213C28.6426 30.8077 28.4826 30.3532 28.4156 29.8698M35.6038 27.9906L31.3263 32.4917C31.0153 32.4564 30.7177 32.3731 30.4311 32.2568C29.8469 32.0207 29.3968 31.6398 29.0419 31.1482C28.7577 30.7536 28.6041 30.3191 28.5394 29.8526C28.4846 29.4569 28.7663 29.1261 29.1968 29.0748C29.5737 29.0292 29.9335 29.2983 29.9908 29.6701C30.0737 30.2176 30.3518 30.6475 30.8665 30.9338M35.6038 27.9906C35.1345 27.1936 34.421 26.675 33.477 26.4532M35.6038 27.9906L33.477 26.4532M28.4156 29.8698L28.5394 29.8526L28.4156 29.8698C28.4156 29.8698 28.4156 29.8698 28.4156 29.8698ZM28.4156 29.8698C28.3497 29.3943 28.6929 29.0091 29.1818 28.9507M29.1818 28.9507L29.1968 29.0748L29.182 28.9507C29.1819 28.9507 29.1819 28.9507 29.1818 28.9507ZM29.1818 28.9507C29.6243 28.8971 30.0465 29.2113 30.1143 29.6511L30.1144 29.6514C30.1917 30.1622 30.4478 30.5579 30.9272 30.8246M30.9272 30.8246C30.9272 30.8245 30.9271 30.8245 30.9271 30.8245L30.8665 30.9338M30.9272 30.8246C31.0515 30.8935 31.1831 30.94 31.3208 30.9704V27.6308C31.2892 27.6235 31.2576 27.6161 31.2259 27.6087C31.1098 27.5818 30.993 27.5546 30.8773 27.5266L30.8772 27.5266C29.5422 27.2021 28.5974 26.1028 28.423 24.8922C28.2188 23.4807 29.0956 22.1466 30.3863 21.62C30.6878 21.4964 31.0026 21.4242 31.3208 21.3796V21.2807C31.3208 21.275 31.3211 21.2695 31.3219 21.264C31.3217 21.2337 31.3214 21.2033 31.3212 21.1728C31.32 21.0267 31.3188 20.879 31.3208 20.7316L31.3208 20.7315C31.3268 20.2999 31.7138 19.967 32.1598 19.9514L32.1599 19.9514C32.5854 19.937 33.0009 20.2523 33.028 20.6751L33.028 20.6753C33.0414 20.8899 33.0378 21.1062 33.0343 21.316C33.034 21.3333 33.0337 21.3506 33.0334 21.3678C33.7958 21.4595 34.4821 21.7304 35.0346 22.2564C35.5763 22.7712 35.9177 23.3914 36.0032 24.1254L36.0032 24.1255C36.0214 24.2813 36.002 24.4288 35.9388 24.5623C35.8757 24.6957 35.7725 24.8072 35.6352 24.8969L35.6351 24.897C35.3716 25.0687 35.0789 25.0978 34.7871 24.9654C34.5126 24.841 34.3471 24.6208 34.3041 24.3341C34.2436 23.9304 34.0698 23.592 33.7391 23.3301L33.7391 23.33C33.5204 23.1567 33.2777 23.044 33.005 23.0012V26.3441C33.162 26.38 33.3199 26.4162 33.477 26.4532M30.9272 30.8246L30.8665 30.9338M30.8665 30.9338C31.0113 31.0142 31.1637 31.0659 31.3208 31.0981L33.477 26.4532M31.322 23.025V25.9528C31.0349 25.8778 30.7869 25.7371 30.5712 25.5414L31.322 23.025ZM31.322 23.025C30.8931 23.1221 30.566 23.3712 30.321 23.7453L31.322 23.025ZM33.831 28.4347L33.8311 28.4348C34.1985 28.7711 34.3295 29.1871 34.2862 29.6681C34.2277 30.3136 33.6835 30.8658 33.005 30.9919V28.0081C33.3233 28.086 33.6005 28.2231 33.831 28.4347ZM30.5711 25.5414C30.0439 25.063 29.9876 24.2546 30.321 23.7454L30.5711 25.5414ZM32.9227 27.9894C32.923 27.9894 32.9232 27.9895 32.9234 27.9895C32.9237 27.9896 32.9239 27.9896 32.9242 27.9897L32.9483 27.867L32.9227 27.9894Z" fill="#808080" stroke="#808080" stroke-width="0.25" stroke-linejoin="round"/>
</svg>
