<svg width="162" height="62" viewBox="0 0 162 62" fill="none" xmlns="http://www.w3.org/2000/svg">
<path d="M17.9498 45.4045L6.53613 14.9348H14.4174L19.8635 31.979C19.9498 32.3527 20.0505 32.7768 20.162 33.2475C20.3131 33.9698 20.5145 34.9041 20.7771 36.0577C20.939 35.224 21.1297 34.3903 21.3527 33.5601C21.5146 32.7408 21.6369 32.2162 21.7232 31.979L27.1333 14.9348H35.0145L23.6009 45.4045H17.9498Z" fill="white"/>
<path d="M35.0898 24.3857H41.7085V45.4043H35.0898V24.3857ZM35.928 18.9738H35.9639C35.9639 18.1976 36.2085 17.558 36.6906 17.0585C37.1762 16.5194 37.7553 16.2463 38.4388 16.2463C39.1582 16.2463 39.7517 16.5051 40.2157 17.0154C40.6798 17.5292 40.9136 18.1797 40.9136 18.9702C40.9136 19.7608 40.6726 20.44 40.187 20.9683C39.7157 21.5109 39.1366 21.7804 38.4388 21.7804C37.7409 21.7804 37.1366 21.4965 36.6546 20.9287C36.169 20.4005 35.9316 19.75 35.9316 18.9738" fill="white"/>
<path d="M65.7266 24.3858V45.408H59.6295V41.9941C58.7482 43.4495 57.7698 44.5204 56.687 45.1996C55.6043 45.8787 54.3381 46.2165 52.8885 46.2165C50.3777 46.2165 48.3777 45.1924 46.8921 43.1369C46.1618 42.1235 45.6043 40.934 45.223 39.5577C44.8381 38.185 44.6475 36.6397 44.6475 34.9184C44.6475 31.4794 45.4352 28.7519 47.0036 26.7395C48.5755 24.7271 50.6798 23.7209 53.3165 23.7209C54.7266 23.7209 55.9388 24.0623 56.9532 24.7451C57.982 25.3991 58.8597 26.4377 59.5899 27.8571V24.3858H65.7266ZM59.8885 34.8861C59.8885 33.2259 59.5 31.9358 58.7194 31.023C57.928 30.0564 56.8669 29.5712 55.5288 29.5712C54.1906 29.5712 53.1403 30.042 52.3741 30.9835C51.5827 31.9538 51.187 33.2546 51.187 34.8897C51.187 36.5247 51.5827 37.8328 52.3741 38.7743C53.1295 39.7014 54.1798 40.165 55.5288 40.165C56.8777 40.165 57.9244 39.7014 58.7086 38.7743C59.4964 37.8472 59.8885 36.5499 59.8885 34.8897" fill="white"/>
<path d="M123.525 24.4036H130.262V45.6594H123.525V43.2985C122.093 45.3181 120.158 46.3243 117.716 46.3243C116.334 46.3243 115.061 46.0404 113.906 45.4762C112.748 44.9084 111.737 44.1142 110.87 43.0937C110.007 42.0731 109.334 40.8693 108.852 39.4893C108.37 38.1094 108.133 36.6037 108.133 34.9723C108.133 33.4522 108.367 32.0112 108.834 30.642C109.302 29.2729 109.957 28.0798 110.795 27.0557C111.633 26.0351 112.633 25.2266 113.791 24.63C114.949 24.0371 116.234 23.7424 117.64 23.7424C120.011 23.7424 121.971 24.666 123.525 26.5166V24.4036ZM115.09 34.9687C115.09 35.6586 115.201 36.3019 115.424 36.8948C115.647 37.4877 115.946 38.0088 116.331 38.4472C116.712 38.8892 117.169 39.2342 117.698 39.4821C118.23 39.7337 118.802 39.8559 119.421 39.8559C120.039 39.8559 120.572 39.7337 121.104 39.4821C121.633 39.2342 122.09 38.8892 122.475 38.4472C122.856 38.0052 123.165 37.4949 123.399 36.9128C123.633 36.3306 123.748 35.7125 123.748 35.0477C123.748 34.3829 123.633 33.7576 123.399 33.1647C123.165 32.5718 122.856 32.0543 122.475 31.6123C122.093 31.1703 121.636 30.8253 121.104 30.5773C120.572 30.3294 120.011 30.2036 119.421 30.2036C118.831 30.2036 118.23 30.3294 117.698 30.5773C117.169 30.8289 116.712 31.1739 116.331 31.6123C115.946 32.0543 115.647 32.561 115.424 33.1252C115.201 33.693 115.09 34.3074 115.09 34.9687Z" fill="white"/>
<path d="M140.033 56.2642H133.335V24.4038H140.033V26.7648C141.464 24.7488 143.41 23.739 145.878 23.739C147.234 23.739 148.5 24.0373 149.673 24.6302C150.846 25.2267 151.86 26.0317 152.727 27.0523C153.59 28.0764 154.263 29.2767 154.745 30.6566C155.227 32.0401 155.468 33.5135 155.468 35.091C155.468 36.6686 155.227 38.1312 154.745 39.4823C154.263 40.8335 153.598 42.023 152.749 43.0435C151.896 44.0677 150.893 44.8655 149.731 45.4476C148.572 46.0298 147.313 46.3172 145.957 46.3172C143.587 46.3172 141.616 45.4045 140.036 43.5826V56.2606L140.033 56.2642ZM148.468 35.091C148.468 34.4262 148.364 33.8009 148.155 33.208C147.943 32.6151 147.641 32.094 147.249 31.6556C146.853 31.2136 146.393 30.8614 145.864 30.5991C145.331 30.3368 144.759 30.2038 144.141 30.2038C143.522 30.2038 142.993 30.326 142.475 30.5775C141.957 30.8255 141.508 31.1705 141.123 31.6125C140.738 32.0545 140.432 32.5719 140.198 33.1649C139.964 33.7614 139.846 34.3867 139.846 35.0515C139.846 35.7163 139.957 36.3344 140.18 36.9165C140.4 37.4951 140.709 38.0018 141.105 38.4294C141.5 38.857 141.961 39.202 142.493 39.4644C143.026 39.7267 143.583 39.8596 144.177 39.8596C144.77 39.8596 145.324 39.7339 145.842 39.4859C146.36 39.2344 146.81 38.893 147.195 38.451C147.576 38.009 147.885 37.4987 148.119 36.9165C148.353 36.3344 148.472 35.7307 148.472 35.0946" fill="white"/>
<path d="M93.1003 8.73584H85.237C87.0607 9.4833 90.1399 10.5075 92.5643 11.5927C94.4133 12.4192 95.8845 13.2817 96.1291 14.0866C96.7478 16.1206 83.6039 17.0333 76.6794 23.2034C73.0428 26.4448 68.9348 35.6766 76.996 44.1322C83.4169 50.8701 102.356 50.5755 102.356 50.5755C102.356 50.5755 92.0068 47.3485 86.5032 43.3884C80.996 39.4283 73.8305 29.6431 87.4169 21.6151C90.8413 19.5919 96.5176 18.1689 98.8665 17.3639C101.215 16.559 103.05 14.87 99.8953 11.5711C98.7622 10.3889 97.5823 9.45814 96.4924 8.73584H93.1003Z" fill="white"/>
<mask id="mask0_0_3725" style="mask-type:luminance" maskUnits="userSpaceOnUse" x="72" y="8" width="31" height="43">
<path d="M93.1003 8.73584H85.237C87.0607 9.4833 90.1399 10.5075 92.5643 11.5927C94.4133 12.4192 95.8845 13.2817 96.1291 14.0866C96.7478 16.1206 83.6039 17.0333 76.6794 23.2034C73.0428 26.4448 68.9348 35.6766 76.996 44.1322C83.4169 50.8701 102.356 50.5755 102.356 50.5755C102.356 50.5755 92.0068 47.3485 86.5032 43.3884C80.996 39.4283 73.8305 29.6431 87.4169 21.6151C90.8413 19.5919 96.5176 18.1689 98.8665 17.3639C101.215 16.559 103.05 14.87 99.8953 11.5711C98.7622 10.3889 97.5823 9.45814 96.4924 8.73584H93.1003Z" fill="white"/>
</mask>
<g mask="url(#mask0_0_3725)">
<path d="M99.3464 -1.86158L55.8213 13.3059L72.6377 61.4667L116.163 46.2992L99.3464 -1.86158Z" fill="white"/>
</g>
<path d="M99.3923 8.73602C104.159 11.4779 106.59 13.6053 106.943 15.3086C107.385 17.436 105.907 19.2292 99.6765 20.9541C85.6981 24.8351 81.5902 35.9068 89.9571 42.0661C97.9607 47.9559 106.155 50.3564 106.86 50.5577C107.259 50.5433 107.479 50.5289 107.479 50.5289H115.522C98.8276 43.5071 93.8492 38.99 94.0614 33.7471C94.288 28.0261 102.083 23.6492 105.378 22.2226C114.734 18.1798 114.087 14.0401 110.838 11.4168C109.054 9.97579 106.489 8.99475 104.364 8.73242H99.3923V8.73602Z" fill="white"/>
<mask id="mask1_0_3725" style="mask-type:luminance" maskUnits="userSpaceOnUse" x="85" y="8" width="31" height="43">
<path d="M99.3923 8.73602C104.159 11.4779 106.59 13.6053 106.943 15.3086C107.385 17.436 105.907 19.2292 99.6765 20.9541C85.6981 24.8351 81.5902 35.9068 89.9571 42.0661C97.9607 47.9559 106.155 50.3564 106.86 50.5577C107.259 50.5433 107.479 50.5289 107.479 50.5289H115.522C98.8276 43.5071 93.8492 38.99 94.0614 33.7471C94.288 28.0261 102.083 23.6492 105.378 22.2226C114.734 18.1798 114.087 14.0401 110.838 11.4168C109.054 9.97579 106.489 8.99475 104.364 8.73242H99.3923V8.73602Z" fill="white"/>
</mask>
<g mask="url(#mask1_0_3725)">
<path d="M111.838 -1.80724L68.5674 13.2715L85.2676 61.0997L128.538 46.021L111.838 -1.80724Z" fill="white"/>
</g>
</svg>
